<mxfile host="app.diagrams.net" modified="2022-05-26T06:17:35.058Z" agent="5.0 (Windows NT 10.0; Win64; x64) AppleWebKit/537.36 (KHTML, like Gecko) Chrome/102.0.5005.62 Safari/537.36" etag="Zg-6pyaTqkJiajdhCjwo" version="18.1.2" type="github">
  <diagram id="6a731a19-8d31-9384-78a2-239565b7b9f0" name="Page-1">
    <mxGraphModel dx="2216" dy="1016" grid="1" gridSize="10" guides="1" tooltips="1" connect="1" arrows="1" fold="1" page="1" pageScale="1" pageWidth="1169" pageHeight="827" background="none" math="0" shadow="0">
      <root>
        <mxCell id="0" />
        <mxCell id="1" parent="0" />
        <mxCell id="1350" value="オンプレミス&lt;br&gt;全社" style="ellipse;whiteSpace=wrap;html=1;shadow=0;fontFamily=Helvetica;fontSize=20;fontColor=#FFFFFF;align=center;strokeWidth=3;fillColor=#1699D3;strokeColor=none;" parent="1" vertex="1">
          <mxGeometry x="351.25" y="255" width="120" height="120" as="geometry" />
        </mxCell>
        <mxCell id="1351" value="AWS&lt;br&gt;他部署" style="ellipse;whiteSpace=wrap;html=1;shadow=0;fontFamily=Helvetica;fontSize=20;fontColor=#FFFFFF;align=center;strokeWidth=3;fillColor=#F08705;strokeColor=none;gradientColor=none;" parent="1" vertex="1">
          <mxGeometry x="1180" y="231.5" width="120" height="120" as="geometry" />
        </mxCell>
        <mxCell id="1356" value="その他&lt;br&gt;クラウド&lt;br&gt;サービス" style="ellipse;whiteSpace=wrap;html=1;shadow=0;fontFamily=Helvetica;fontSize=20;fontColor=#FFFFFF;align=center;strokeWidth=3;fillColor=#E85642;strokeColor=none;" parent="1" vertex="1">
          <mxGeometry x="1183.5" y="891.25" width="120" height="120" as="geometry" />
        </mxCell>
        <mxCell id="1359" style="endArrow=none;strokeWidth=6;strokeColor=#1699D3;html=1;" parent="1" source="1515" target="1350" edge="1">
          <mxGeometry relative="1" as="geometry" />
        </mxCell>
        <mxCell id="1360" style="endArrow=none;strokeWidth=6;strokeColor=#f08705;html=1;" parent="1" source="1515" target="1351" edge="1">
          <mxGeometry relative="1" as="geometry" />
        </mxCell>
        <mxCell id="1363" style="endArrow=none;strokeWidth=6;strokeColor=#736CA8;html=1;" parent="1" source="1515" target="1516" edge="1">
          <mxGeometry relative="1" as="geometry" />
        </mxCell>
        <mxCell id="1366" value="" style="edgeStyle=none;endArrow=none;strokeWidth=6;strokeColor=#E85642;html=1;" parent="1" source="1515" target="1356" edge="1">
          <mxGeometry x="181" y="226.5" width="100" height="100" as="geometry">
            <mxPoint x="181" y="326.5" as="sourcePoint" />
            <mxPoint x="281" y="226.5" as="targetPoint" />
          </mxGeometry>
        </mxCell>
        <mxCell id="1372" value="xxxxx" style="rounded=1;fillColor=#64BBE2;strokeColor=none;strokeWidth=3;shadow=0;html=1;fontColor=#FFFFFF;" parent="1" vertex="1">
          <mxGeometry x="314.75" y="90" width="130" height="40" as="geometry" />
        </mxCell>
        <mxCell id="1377" value="" style="edgeStyle=none;endArrow=none;strokeWidth=3;strokeColor=#64BBE2;html=1;" parent="1" source="1350" edge="1">
          <mxGeometry x="-395.25" y="60" width="100" height="100" as="geometry">
            <mxPoint x="-395.25" y="160" as="sourcePoint" />
            <mxPoint x="539.75" y="351.5245478036177" as="targetPoint" />
          </mxGeometry>
        </mxCell>
        <mxCell id="1378" value="" style="edgeStyle=none;endArrow=none;strokeWidth=3;strokeColor=#64BBE2;html=1;" parent="1" source="1350" edge="1">
          <mxGeometry x="-395.25" y="60" width="100" height="100" as="geometry">
            <mxPoint x="-395.25" y="160" as="sourcePoint" />
            <mxPoint x="321.3499999999999" y="470" as="targetPoint" />
          </mxGeometry>
        </mxCell>
        <mxCell id="1379" value="" style="edgeStyle=none;endArrow=none;strokeWidth=3;strokeColor=#64BBE2;html=1;" parent="1" source="1350" edge="1">
          <mxGeometry x="-395.25" y="60" width="100" height="100" as="geometry">
            <mxPoint x="-395.25" y="160" as="sourcePoint" />
            <mxPoint x="267.19000000000005" y="420" as="targetPoint" />
          </mxGeometry>
        </mxCell>
        <mxCell id="1380" value="" style="edgeStyle=none;endArrow=none;strokeWidth=3;strokeColor=#64BBE2;html=1;" parent="1" source="1350" edge="1">
          <mxGeometry x="-395.25" y="60" width="100" height="100" as="geometry">
            <mxPoint x="-395.25" y="160" as="sourcePoint" />
            <mxPoint x="274.75" y="352.258064516129" as="targetPoint" />
          </mxGeometry>
        </mxCell>
        <mxCell id="1381" value="" style="edgeStyle=none;endArrow=none;strokeWidth=3;strokeColor=#64BBE2;html=1;" parent="1" source="1350" edge="1">
          <mxGeometry x="-395.25" y="60" width="100" height="100" as="geometry">
            <mxPoint x="-395.25" y="160" as="sourcePoint" />
            <mxPoint x="274.75" y="301.45161290322585" as="targetPoint" />
          </mxGeometry>
        </mxCell>
        <mxCell id="1382" value="" style="edgeStyle=none;endArrow=none;strokeWidth=3;strokeColor=#64BBE2;html=1;" parent="1" source="1350" edge="1">
          <mxGeometry x="-395.25" y="60" width="100" height="100" as="geometry">
            <mxPoint x="-395.25" y="160" as="sourcePoint" />
            <mxPoint x="287.75" y="250" as="targetPoint" />
          </mxGeometry>
        </mxCell>
        <mxCell id="1383" value="" style="edgeStyle=none;endArrow=none;strokeWidth=3;strokeColor=#64BBE2;html=1;" parent="1" source="1350" edge="1">
          <mxGeometry x="-395.25" y="60" width="100" height="100" as="geometry">
            <mxPoint x="-395.25" y="160" as="sourcePoint" />
            <mxPoint x="315.12931034482745" y="190" as="targetPoint" />
          </mxGeometry>
        </mxCell>
        <mxCell id="1384" value="" style="edgeStyle=none;endArrow=none;strokeWidth=3;strokeColor=#64BBE2;html=1;" parent="1" source="1350" target="1372" edge="1">
          <mxGeometry x="-395.25" y="60" width="100" height="100" as="geometry">
            <mxPoint x="-395.25" y="160" as="sourcePoint" />
            <mxPoint x="-295.25" y="60" as="targetPoint" />
          </mxGeometry>
        </mxCell>
        <mxCell id="1385" value="" style="edgeStyle=none;endArrow=none;strokeWidth=3;strokeColor=#64BBE2;html=1;" parent="1" source="1350" edge="1">
          <mxGeometry x="-395.25" y="60" width="100" height="100" as="geometry">
            <mxPoint x="-395.25" y="160" as="sourcePoint" />
            <mxPoint x="487.5431034482758" y="190" as="targetPoint" />
          </mxGeometry>
        </mxCell>
        <mxCell id="1386" value="" style="edgeStyle=none;endArrow=none;strokeWidth=3;strokeColor=#64BBE2;html=1;" parent="1" source="1350" edge="1">
          <mxGeometry x="-395.25" y="60" width="100" height="100" as="geometry">
            <mxPoint x="-395.25" y="160" as="sourcePoint" />
            <mxPoint x="520.9852941176468" y="250" as="targetPoint" />
          </mxGeometry>
        </mxCell>
        <mxCell id="1387" value="" style="edgeStyle=none;endArrow=none;strokeWidth=3;strokeColor=#64BBE2;html=1;" parent="1" source="1350" edge="1">
          <mxGeometry x="-395.25" y="60" width="100" height="100" as="geometry">
            <mxPoint x="-395.25" y="160" as="sourcePoint" />
            <mxPoint x="524.75" y="299.10364145658286" as="targetPoint" />
          </mxGeometry>
        </mxCell>
        <mxCell id="1392" value="ccc" style="rounded=1;fillColor=#f5af58;strokeColor=none;strokeWidth=3;shadow=0;html=1;fontColor=#FFFFFF;" parent="1" vertex="1">
          <mxGeometry x="1090" y="81.5" width="120" height="40" as="geometry" />
        </mxCell>
        <mxCell id="1399" value="" style="edgeStyle=none;endArrow=none;strokeWidth=3;strokeColor=#F5AF58;html=1;" parent="1" source="1351" edge="1">
          <mxGeometry x="60" y="21.5" width="100" height="100" as="geometry">
            <mxPoint x="60" y="121.5" as="sourcePoint" />
            <mxPoint x="1111.4285714285716" y="411.5" as="targetPoint" />
          </mxGeometry>
        </mxCell>
        <mxCell id="1400" value="" style="edgeStyle=none;endArrow=none;strokeWidth=3;strokeColor=#F5AF58;html=1;" parent="1" source="1351" edge="1">
          <mxGeometry x="60" y="21.5" width="100" height="100" as="geometry">
            <mxPoint x="60" y="121.5" as="sourcePoint" />
            <mxPoint x="1090" y="341.5" as="targetPoint" />
          </mxGeometry>
        </mxCell>
        <mxCell id="1401" value="" style="edgeStyle=none;endArrow=none;strokeWidth=3;strokeColor=#F5AF58;html=1;" parent="1" source="1351" edge="1">
          <mxGeometry x="60" y="21.5" width="100" height="100" as="geometry">
            <mxPoint x="60" y="121.5" as="sourcePoint" />
            <mxPoint x="1080" y="291.5" as="targetPoint" />
          </mxGeometry>
        </mxCell>
        <mxCell id="1402" value="" style="edgeStyle=none;endArrow=none;strokeWidth=3;strokeColor=#F5AF58;html=1;" parent="1" source="1351" edge="1">
          <mxGeometry x="60" y="21.5" width="100" height="100" as="geometry">
            <mxPoint x="60" y="121.5" as="sourcePoint" />
            <mxPoint x="1097.1428571428578" y="241.5" as="targetPoint" />
          </mxGeometry>
        </mxCell>
        <mxCell id="1403" value="" style="edgeStyle=none;endArrow=none;strokeWidth=3;strokeColor=#F5AF58;html=1;" parent="1" source="1351" edge="1">
          <mxGeometry x="60" y="21.5" width="100" height="100" as="geometry">
            <mxPoint x="60" y="121.5" as="sourcePoint" />
            <mxPoint x="1104.6153846153848" y="181.5" as="targetPoint" />
          </mxGeometry>
        </mxCell>
        <mxCell id="1404" value="" style="edgeStyle=none;endArrow=none;strokeWidth=3;strokeColor=#F5AF58;html=1;" parent="1" source="1351" target="1392" edge="1">
          <mxGeometry x="60" y="21.5" width="100" height="100" as="geometry">
            <mxPoint x="60" y="121.5" as="sourcePoint" />
            <mxPoint x="160" y="21.5" as="targetPoint" />
          </mxGeometry>
        </mxCell>
        <mxCell id="1405" value="" style="edgeStyle=none;endArrow=none;strokeWidth=3;strokeColor=#F5AF58;html=1;" parent="1" source="1351" edge="1">
          <mxGeometry x="60" y="21.5" width="100" height="100" as="geometry">
            <mxPoint x="60" y="121.5" as="sourcePoint" />
            <mxPoint x="1275.7894736842109" y="121.5" as="targetPoint" />
          </mxGeometry>
        </mxCell>
        <mxCell id="1406" value="" style="edgeStyle=none;endArrow=none;strokeWidth=3;strokeColor=#F5AF58;html=1;" parent="1" source="1351" edge="1">
          <mxGeometry x="60" y="21.5" width="100" height="100" as="geometry">
            <mxPoint x="60" y="121.5" as="sourcePoint" />
            <mxPoint x="1333.0769230769229" y="181.5" as="targetPoint" />
          </mxGeometry>
        </mxCell>
        <mxCell id="1407" value="" style="edgeStyle=none;endArrow=none;strokeWidth=3;strokeColor=#F5AF58;html=1;" parent="1" source="1351" edge="1">
          <mxGeometry x="60" y="21.5" width="100" height="100" as="geometry">
            <mxPoint x="60" y="121.5" as="sourcePoint" />
            <mxPoint x="1354.2857142857147" y="241.5" as="targetPoint" />
          </mxGeometry>
        </mxCell>
        <mxCell id="1408" value="" style="edgeStyle=none;endArrow=none;strokeWidth=3;strokeColor=#F5AF58;html=1;" parent="1" source="1351" edge="1">
          <mxGeometry x="60" y="21.5" width="100" height="100" as="geometry">
            <mxPoint x="60" y="121.5" as="sourcePoint" />
            <mxPoint x="1355" y="291.5" as="targetPoint" />
          </mxGeometry>
        </mxCell>
        <mxCell id="1409" value="" style="edgeStyle=none;endArrow=none;strokeWidth=3;strokeColor=#F5AF58;html=1;" parent="1" source="1351" edge="1">
          <mxGeometry x="60" y="21.5" width="100" height="100" as="geometry">
            <mxPoint x="60" y="121.5" as="sourcePoint" />
            <mxPoint x="1353.333333333334" y="331.5" as="targetPoint" />
          </mxGeometry>
        </mxCell>
        <mxCell id="1410" value="" style="edgeStyle=none;endArrow=none;strokeWidth=3;strokeColor=#F5AF58;html=1;" parent="1" source="1351" edge="1">
          <mxGeometry x="60" y="21.5" width="100" height="100" as="geometry">
            <mxPoint x="60" y="121.5" as="sourcePoint" />
            <mxPoint x="1337.3076923076933" y="401.5" as="targetPoint" />
          </mxGeometry>
        </mxCell>
        <mxCell id="1490" value="teams" style="rounded=1;fillColor=#f08e81;strokeColor=none;strokeWidth=3;shadow=0;html=1;fontColor=#FFFFFF;" parent="1" vertex="1">
          <mxGeometry x="1248.5" y="726.25" width="120" height="40" as="geometry" />
        </mxCell>
        <mxCell id="1491" value="googleworkspace" style="rounded=1;fillColor=#f08e81;strokeColor=none;strokeWidth=3;shadow=0;html=1;fontColor=#FFFFFF;" parent="1" vertex="1">
          <mxGeometry x="1113.5" y="731.25" width="120" height="40" as="geometry" />
        </mxCell>
        <mxCell id="1502" value="" style="edgeStyle=none;endArrow=none;strokeWidth=3;strokeColor=#F08E81;html=1;" parent="1" source="1356" edge="1">
          <mxGeometry x="813.5" y="-228.75" width="100" height="100" as="geometry">
            <mxPoint x="813.5" y="-128.75" as="sourcePoint" />
            <mxPoint x="1408.5" y="932.5500000000002" as="targetPoint" />
          </mxGeometry>
        </mxCell>
        <mxCell id="1503" value="" style="edgeStyle=none;endArrow=none;strokeWidth=3;strokeColor=#F08E81;html=1;" parent="1" source="1356" target="1490" edge="1">
          <mxGeometry x="813.5" y="-228.75" width="100" height="100" as="geometry">
            <mxPoint x="813.5" y="-128.75" as="sourcePoint" />
            <mxPoint x="913.5" y="-228.75" as="targetPoint" />
          </mxGeometry>
        </mxCell>
        <mxCell id="1504" value="" style="edgeStyle=none;endArrow=none;strokeWidth=3;strokeColor=#F08E81;html=1;" parent="1" source="1356" target="1491" edge="1">
          <mxGeometry x="813.5" y="-228.75" width="100" height="100" as="geometry">
            <mxPoint x="813.5" y="-128.75" as="sourcePoint" />
            <mxPoint x="913.5" y="-228.75" as="targetPoint" />
          </mxGeometry>
        </mxCell>
        <mxCell id="1505" value="" style="edgeStyle=none;endArrow=none;strokeWidth=3;strokeColor=#F08E81;html=1;" parent="1" source="1356" edge="1">
          <mxGeometry x="813.5" y="-228.75" width="100" height="100" as="geometry">
            <mxPoint x="813.5" y="-128.75" as="sourcePoint" />
            <mxPoint x="1395.528596187176" y="827" as="targetPoint" />
          </mxGeometry>
        </mxCell>
        <mxCell id="1506" value="" style="edgeStyle=none;endArrow=none;strokeWidth=3;strokeColor=#F08E81;html=1;" parent="1" source="1356" edge="1">
          <mxGeometry x="813.5" y="-228.75" width="100" height="100" as="geometry">
            <mxPoint x="813.5" y="-128.75" as="sourcePoint" />
            <mxPoint x="1098.2058823529405" y="886.25" as="targetPoint" />
          </mxGeometry>
        </mxCell>
        <mxCell id="1507" value="" style="edgeStyle=none;endArrow=none;strokeWidth=3;strokeColor=#F08E81;html=1;" parent="1" source="1356" edge="1">
          <mxGeometry x="813.5" y="-228.75" width="100" height="100" as="geometry">
            <mxPoint x="813.5" y="-128.75" as="sourcePoint" />
            <mxPoint x="1093.5" y="929.8214285714284" as="targetPoint" />
          </mxGeometry>
        </mxCell>
        <mxCell id="1508" value="" style="edgeStyle=none;endArrow=none;strokeWidth=3;strokeColor=#F08E81;html=1;" parent="1" source="1356" edge="1">
          <mxGeometry x="813.5" y="-228.75" width="100" height="100" as="geometry">
            <mxPoint x="813.5" y="-128.75" as="sourcePoint" />
            <mxPoint x="1108.5" y="975.480769230769" as="targetPoint" />
          </mxGeometry>
        </mxCell>
        <mxCell id="1509" value="" style="edgeStyle=none;endArrow=none;strokeWidth=3;strokeColor=#F08E81;html=1;" parent="1" source="1356" edge="1">
          <mxGeometry x="813.5" y="-228.75" width="100" height="100" as="geometry">
            <mxPoint x="813.5" y="-128.75" as="sourcePoint" />
            <mxPoint x="1116.3205128205127" y="1028.75" as="targetPoint" />
          </mxGeometry>
        </mxCell>
        <mxCell id="1510" value="" style="edgeStyle=none;endArrow=none;strokeWidth=3;strokeColor=#F08E81;html=1;" parent="1" source="1356" edge="1">
          <mxGeometry x="813.5" y="-228.75" width="100" height="100" as="geometry">
            <mxPoint x="813.5" y="-128.75" as="sourcePoint" />
            <mxPoint x="1165.703389830508" y="1078.75" as="targetPoint" />
          </mxGeometry>
        </mxCell>
        <mxCell id="1511" value="" style="edgeStyle=none;endArrow=none;strokeWidth=3;strokeColor=#F08E81;html=1;" parent="1" source="1356" edge="1">
          <mxGeometry x="813.5" y="-228.75" width="100" height="100" as="geometry">
            <mxPoint x="813.5" y="-128.75" as="sourcePoint" />
            <mxPoint x="1261.524691358025" y="1133.75" as="targetPoint" />
          </mxGeometry>
        </mxCell>
        <mxCell id="1512" value="" style="edgeStyle=none;endArrow=none;strokeWidth=3;strokeColor=#F08E81;html=1;" parent="1" source="1356" edge="1">
          <mxGeometry x="813.5" y="-228.75" width="100" height="100" as="geometry">
            <mxPoint x="813.5" y="-128.75" as="sourcePoint" />
            <mxPoint x="1367.409090909091" y="1068.75" as="targetPoint" />
          </mxGeometry>
        </mxCell>
        <mxCell id="1513" value="" style="edgeStyle=none;endArrow=none;strokeWidth=3;strokeColor=#F08E81;html=1;" parent="1" source="1356" edge="1">
          <mxGeometry x="813.5" y="-228.75" width="100" height="100" as="geometry">
            <mxPoint x="813.5" y="-128.75" as="sourcePoint" />
            <mxPoint x="1389.9285714285716" y="1001.25" as="targetPoint" />
          </mxGeometry>
        </mxCell>
        <mxCell id="1515" value="astec&lt;br&gt;paints" style="ellipse;whiteSpace=wrap;html=1;shadow=0;fontFamily=Helvetica;fontSize=30;fontColor=#2F5B7C;align=center;strokeColor=#2F5B7C;strokeWidth=6;fillColor=#FFFFFF;fontStyle=1;gradientColor=none;" parent="1" vertex="1">
          <mxGeometry x="688.5" y="526.5" width="270" height="270" as="geometry" />
        </mxCell>
        <mxCell id="1516" value="AWS&lt;br&gt;情シス" style="ellipse;whiteSpace=wrap;html=1;shadow=0;fontFamily=Helvetica;fontSize=20;fontColor=#FFFFFF;align=center;strokeWidth=3;fillColor=#736ca8;strokeColor=none;" parent="1" vertex="1">
          <mxGeometry x="347.25" y="890" width="120" height="120" as="geometry" />
        </mxCell>
        <mxCell id="1517" value="監視" style="rounded=1;fillColor=#a29dc5;strokeColor=none;strokeWidth=3;shadow=0;html=1;fontColor=#FFFFFF;" parent="1" vertex="1">
          <mxGeometry x="177.25" y="740" width="120" height="40" as="geometry" />
        </mxCell>
        <mxCell id="1518" value="検証" style="rounded=1;fillColor=#a29dc5;strokeColor=none;strokeWidth=3;shadow=0;html=1;fontColor=#FFFFFF;" parent="1" vertex="1">
          <mxGeometry x="337.25" y="700" width="120" height="40" as="geometry" />
        </mxCell>
        <mxCell id="1519" value="信頼性、安全性" style="rounded=1;fillColor=#a29dc5;strokeColor=none;strokeWidth=3;shadow=0;html=1;fontColor=#FFFFFF;" parent="1" vertex="1">
          <mxGeometry x="484.75" y="740" width="120" height="40" as="geometry" />
        </mxCell>
        <mxCell id="1520" value="パフォーマンス&lt;br&gt;監視" style="rounded=1;fillColor=#a29dc5;strokeColor=none;strokeWidth=3;shadow=0;html=1;fontColor=#FFFFFF;" parent="1" vertex="1">
          <mxGeometry x="604.75" y="840" width="120" height="40" as="geometry" />
        </mxCell>
        <mxCell id="1521" value="２重チェック" style="rounded=1;fillColor=#a29dc5;strokeColor=none;strokeWidth=3;shadow=0;html=1;fontColor=#FFFFFF;" parent="1" vertex="1">
          <mxGeometry x="577.25" y="931.25" width="120" height="40" as="geometry" />
        </mxCell>
        <mxCell id="1522" value="保護" style="rounded=1;fillColor=#a29dc5;strokeColor=none;strokeWidth=3;shadow=0;html=1;fontColor=#FFFFFF;" parent="1" vertex="1">
          <mxGeometry x="102.25" y="810" width="120" height="40" as="geometry" />
        </mxCell>
        <mxCell id="1523" value="セキュリティ対策" style="rounded=1;fillColor=#a29dc5;strokeColor=none;strokeWidth=3;shadow=0;html=1;fontColor=#FFFFFF;" parent="1" vertex="1">
          <mxGeometry x="507.25" y="1000" width="120" height="40" as="geometry" />
        </mxCell>
        <mxCell id="1524" value="policy" style="rounded=1;fillColor=#a29dc5;strokeColor=none;strokeWidth=3;shadow=0;html=1;fontColor=#FFFFFF;" parent="1" vertex="1">
          <mxGeometry x="457.25" y="1060" width="120" height="40" as="geometry" />
        </mxCell>
        <mxCell id="1525" value="開発本番の分離&lt;br&gt;データ保護" style="rounded=1;fillColor=#a29dc5;strokeColor=none;strokeWidth=3;shadow=0;html=1;fontColor=#FFFFFF;" parent="1" vertex="1">
          <mxGeometry x="317.25" y="1060" width="120" height="40" as="geometry" />
        </mxCell>
        <mxCell id="1526" value="マニュアル" style="rounded=1;fillColor=#a29dc5;strokeColor=none;strokeWidth=3;shadow=0;html=1;fontColor=#FFFFFF;" parent="1" vertex="1">
          <mxGeometry x="177.25" y="1025" width="120" height="40" as="geometry" />
        </mxCell>
        <mxCell id="1527" value="UPS" style="rounded=1;fillColor=#a29dc5;strokeColor=none;strokeWidth=3;shadow=0;html=1;fontColor=#FFFFFF;" parent="1" vertex="1">
          <mxGeometry x="72.25" y="970" width="120" height="40" as="geometry" />
        </mxCell>
        <mxCell id="1528" value="" style="edgeStyle=none;endArrow=none;strokeWidth=3;strokeColor=#A29DC5;html=1;" parent="1" source="1516" target="1517" edge="1">
          <mxGeometry x="-1462.75" y="-135" width="100" height="100" as="geometry">
            <mxPoint x="-1462.75" y="-35" as="sourcePoint" />
            <mxPoint x="-1362.75" y="-135" as="targetPoint" />
          </mxGeometry>
        </mxCell>
        <mxCell id="1529" value="DR" style="rounded=1;fillColor=#a29dc5;strokeColor=none;strokeWidth=3;shadow=0;html=1;fontColor=#FFFFFF;" parent="1" vertex="1">
          <mxGeometry x="112.25" y="900" width="120" height="40" as="geometry" />
        </mxCell>
        <mxCell id="1530" value="" style="edgeStyle=none;endArrow=none;strokeWidth=3;strokeColor=#A29DC5;html=1;" parent="1" source="1516" target="1518" edge="1">
          <mxGeometry x="-1462.75" y="-135" width="100" height="100" as="geometry">
            <mxPoint x="-1462.75" y="-35" as="sourcePoint" />
            <mxPoint x="-1362.75" y="-135" as="targetPoint" />
          </mxGeometry>
        </mxCell>
        <mxCell id="1531" value="" style="edgeStyle=none;endArrow=none;strokeWidth=3;strokeColor=#A29DC5;html=1;" parent="1" source="1516" target="1519" edge="1">
          <mxGeometry x="-1462.75" y="-135" width="100" height="100" as="geometry">
            <mxPoint x="-1462.75" y="-35" as="sourcePoint" />
            <mxPoint x="-1362.75" y="-135" as="targetPoint" />
          </mxGeometry>
        </mxCell>
        <mxCell id="1532" value="" style="edgeStyle=none;endArrow=none;strokeWidth=3;strokeColor=#A29DC5;html=1;" parent="1" source="1516" target="1520" edge="1">
          <mxGeometry x="-1462.75" y="-135" width="100" height="100" as="geometry">
            <mxPoint x="-1462.75" y="-35" as="sourcePoint" />
            <mxPoint x="-1362.75" y="-135" as="targetPoint" />
          </mxGeometry>
        </mxCell>
        <mxCell id="1533" value="" style="edgeStyle=none;endArrow=none;strokeWidth=3;strokeColor=#A29DC5;html=1;" parent="1" source="1516" target="1521" edge="1">
          <mxGeometry x="-1462.75" y="-135" width="100" height="100" as="geometry">
            <mxPoint x="-1462.75" y="-35" as="sourcePoint" />
            <mxPoint x="-1362.75" y="-135" as="targetPoint" />
          </mxGeometry>
        </mxCell>
        <mxCell id="1534" value="" style="edgeStyle=none;endArrow=none;strokeWidth=3;strokeColor=#A29DC5;html=1;" parent="1" source="1516" target="1522" edge="1">
          <mxGeometry x="-1462.75" y="-135" width="100" height="100" as="geometry">
            <mxPoint x="-1462.75" y="-35" as="sourcePoint" />
            <mxPoint x="-1362.75" y="-135" as="targetPoint" />
          </mxGeometry>
        </mxCell>
        <mxCell id="1535" value="" style="edgeStyle=none;endArrow=none;strokeWidth=3;strokeColor=#A29DC5;html=1;" parent="1" source="1516" target="1523" edge="1">
          <mxGeometry x="-1462.75" y="-135" width="100" height="100" as="geometry">
            <mxPoint x="-1462.75" y="-35" as="sourcePoint" />
            <mxPoint x="-1362.75" y="-135" as="targetPoint" />
          </mxGeometry>
        </mxCell>
        <mxCell id="1536" value="" style="edgeStyle=none;endArrow=none;strokeWidth=3;strokeColor=#A29DC5;html=1;" parent="1" source="1516" target="1524" edge="1">
          <mxGeometry x="-1462.75" y="-135" width="100" height="100" as="geometry">
            <mxPoint x="-1462.75" y="-35" as="sourcePoint" />
            <mxPoint x="-1362.75" y="-135" as="targetPoint" />
          </mxGeometry>
        </mxCell>
        <mxCell id="1537" value="" style="edgeStyle=none;endArrow=none;strokeWidth=3;strokeColor=#A29DC5;html=1;" parent="1" source="1516" target="1525" edge="1">
          <mxGeometry x="-1462.75" y="-135" width="100" height="100" as="geometry">
            <mxPoint x="-1462.75" y="-35" as="sourcePoint" />
            <mxPoint x="-1362.75" y="-135" as="targetPoint" />
          </mxGeometry>
        </mxCell>
        <mxCell id="1538" value="" style="edgeStyle=none;endArrow=none;strokeWidth=3;strokeColor=#A29DC5;html=1;" parent="1" source="1516" target="1526" edge="1">
          <mxGeometry x="-1462.75" y="-135" width="100" height="100" as="geometry">
            <mxPoint x="-1462.75" y="-35" as="sourcePoint" />
            <mxPoint x="-1362.75" y="-135" as="targetPoint" />
          </mxGeometry>
        </mxCell>
        <mxCell id="1539" value="" style="edgeStyle=none;endArrow=none;strokeWidth=3;strokeColor=#A29DC5;html=1;" parent="1" source="1516" target="1527" edge="1">
          <mxGeometry x="-1462.75" y="-135" width="100" height="100" as="geometry">
            <mxPoint x="-1462.75" y="-35" as="sourcePoint" />
            <mxPoint x="-1362.75" y="-135" as="targetPoint" />
          </mxGeometry>
        </mxCell>
        <mxCell id="1540" value="" style="edgeStyle=none;endArrow=none;strokeWidth=3;strokeColor=#A29DC5;html=1;" parent="1" source="1516" target="1529" edge="1">
          <mxGeometry x="-1462.75" y="-135" width="100" height="100" as="geometry">
            <mxPoint x="-1462.75" y="-35" as="sourcePoint" />
            <mxPoint x="-1362.75" y="-135" as="targetPoint" />
          </mxGeometry>
        </mxCell>
        <mxCell id="1542" style="edgeStyle=none;rounded=0;html=1;exitX=0.5;exitY=1;endArrow=none;endFill=0;jettySize=auto;orthogonalLoop=1;strokeColor=#736CA8;strokeWidth=2;fillColor=#64bbe2;fontSize=20;fontColor=#23445D;" parent="1" source="1529" target="1529" edge="1">
          <mxGeometry relative="1" as="geometry" />
        </mxCell>
        <mxCell id="zO4uqiVkF_f-rewkO_dX-1542" value="ウィルス" style="rounded=1;fillColor=#a29dc5;strokeColor=none;strokeWidth=3;shadow=0;html=1;fontColor=#FFFFFF;" vertex="1" parent="1">
          <mxGeometry x="710" y="950" width="120" height="40" as="geometry" />
        </mxCell>
        <mxCell id="zO4uqiVkF_f-rewkO_dX-1543" value="ログ" style="rounded=1;fillColor=#a29dc5;strokeColor=none;strokeWidth=3;shadow=0;html=1;fontColor=#FFFFFF;" vertex="1" parent="1">
          <mxGeometry x="660" y="1025" width="120" height="40" as="geometry" />
        </mxCell>
      </root>
    </mxGraphModel>
  </diagram>
</mxfile>
